<svg width="70" height="27" viewBox="0 0 70 27" fill="none" xmlns="http://www.w3.org/2000/svg">
<path d="M28.324 16.056C27.9227 16.056 27.561 15.9743 27.239 15.811C26.9217 15.643 26.672 15.412 26.49 15.118C26.3127 14.824 26.224 14.4903 26.224 14.117C26.224 13.7437 26.3127 13.41 26.49 13.116C26.672 12.822 26.9217 12.5933 27.239 12.43C27.561 12.262 27.9227 12.178 28.324 12.178C28.7207 12.178 29.066 12.262 29.36 12.43C29.6587 12.5933 29.8757 12.829 30.011 13.137L29.164 13.592C28.968 13.2467 28.6857 13.074 28.317 13.074C28.0323 13.074 27.7967 13.1673 27.61 13.354C27.4233 13.5407 27.33 13.795 27.33 14.117C27.33 14.439 27.4233 14.6933 27.61 14.88C27.7967 15.0667 28.0323 15.16 28.317 15.16C28.6903 15.16 28.9727 14.9873 29.164 14.642L30.011 15.104C29.8757 15.4027 29.6587 15.636 29.36 15.804C29.066 15.972 28.7207 16.056 28.324 16.056ZM32.1587 12.178C32.7421 12.178 33.1901 12.318 33.5027 12.598C33.8154 12.8733 33.9717 13.291 33.9717 13.851V16H32.9497V15.531C32.7444 15.881 32.3617 16.056 31.8017 16.056C31.5124 16.056 31.2604 16.007 31.0457 15.909C30.8357 15.811 30.6747 15.6757 30.5627 15.503C30.4507 15.3303 30.3947 15.1343 30.3947 14.915C30.3947 14.565 30.5254 14.2897 30.7867 14.089C31.0527 13.8883 31.4611 13.788 32.0117 13.788H32.8797C32.8797 13.55 32.8074 13.368 32.6627 13.242C32.5181 13.1113 32.3011 13.046 32.0117 13.046C31.8111 13.046 31.6127 13.0787 31.4167 13.144C31.2254 13.2047 31.0621 13.2887 30.9267 13.396L30.5347 12.633C30.7401 12.4883 30.9851 12.3763 31.2697 12.297C31.5591 12.2177 31.8554 12.178 32.1587 12.178ZM32.0747 15.321C32.2614 15.321 32.4271 15.279 32.5717 15.195C32.7164 15.1063 32.8191 14.978 32.8797 14.81V14.425H32.1307C31.6827 14.425 31.4587 14.572 31.4587 14.866C31.4587 15.006 31.5124 15.118 31.6197 15.202C31.7317 15.2813 31.8834 15.321 32.0747 15.321ZM39.7831 12.178C40.2544 12.178 40.6277 12.318 40.9031 12.598C41.1831 12.8733 41.3231 13.2887 41.3231 13.844V16H40.2311V14.012C40.2311 13.7133 40.1681 13.4917 40.0421 13.347C39.9207 13.1977 39.7457 13.123 39.5171 13.123C39.2604 13.123 39.0574 13.207 38.9081 13.375C38.7587 13.5383 38.6841 13.7833 38.6841 14.11V16H37.5921V14.012C37.5921 13.4193 37.3541 13.123 36.8781 13.123C36.6261 13.123 36.4254 13.207 36.2761 13.375C36.1267 13.5383 36.0521 13.7833 36.0521 14.11V16H34.9601V12.234H36.0031V12.668C36.1431 12.5093 36.3134 12.388 36.5141 12.304C36.7194 12.22 36.9434 12.178 37.1861 12.178C37.4521 12.178 37.6924 12.2317 37.9071 12.339C38.1217 12.4417 38.2944 12.5933 38.4251 12.794C38.5791 12.598 38.7727 12.4463 39.0061 12.339C39.2441 12.2317 39.5031 12.178 39.7831 12.178ZM46.0319 14.131C46.0319 14.145 46.0249 14.243 46.0109 14.425H43.1619C43.2132 14.6583 43.3345 14.8427 43.5259 14.978C43.7172 15.1133 43.9552 15.181 44.2399 15.181C44.4359 15.181 44.6085 15.153 44.7579 15.097C44.9119 15.0363 45.0542 14.943 45.1849 14.817L45.7659 15.447C45.4112 15.853 44.8932 16.056 44.2119 16.056C43.7872 16.056 43.4115 15.9743 43.0849 15.811C42.7582 15.643 42.5062 15.412 42.3289 15.118C42.1515 14.824 42.0629 14.4903 42.0629 14.117C42.0629 13.7483 42.1492 13.417 42.3219 13.123C42.4992 12.8243 42.7395 12.5933 43.0429 12.43C43.3509 12.262 43.6939 12.178 44.0719 12.178C44.4405 12.178 44.7742 12.2573 45.0729 12.416C45.3715 12.5747 45.6049 12.8033 45.7729 13.102C45.9455 13.396 46.0319 13.739 46.0319 14.131ZM44.0789 13.004C43.8315 13.004 43.6239 13.074 43.4559 13.214C43.2879 13.354 43.1852 13.5453 43.1479 13.788H45.0029C44.9655 13.55 44.8629 13.361 44.6949 13.221C44.5269 13.0763 44.3215 13.004 44.0789 13.004ZM47.8019 12.731C47.9325 12.549 48.1075 12.4113 48.3269 12.318C48.5509 12.2247 48.8075 12.178 49.0969 12.178V13.186C48.9755 13.1767 48.8939 13.172 48.8519 13.172C48.5392 13.172 48.2942 13.2607 48.1169 13.438C47.9395 13.6107 47.8509 13.872 47.8509 14.222V16H46.7589V12.234H47.8019V12.731ZM51.5655 16.056C51.1689 16.056 50.8119 15.9743 50.4945 15.811C50.1819 15.643 49.9369 15.412 49.7595 15.118C49.5822 14.824 49.4935 14.4903 49.4935 14.117C49.4935 13.7437 49.5822 13.41 49.7595 13.116C49.9369 12.822 50.1819 12.5933 50.4945 12.43C50.8119 12.262 51.1689 12.178 51.5655 12.178C51.9622 12.178 52.3169 12.262 52.6295 12.43C52.9422 12.5933 53.1872 12.822 53.3645 13.116C53.5419 13.41 53.6305 13.7437 53.6305 14.117C53.6305 14.4903 53.5419 14.824 53.3645 15.118C53.1872 15.412 52.9422 15.643 52.6295 15.811C52.3169 15.9743 51.9622 16.056 51.5655 16.056ZM51.5655 15.16C51.8455 15.16 52.0742 15.0667 52.2515 14.88C52.4335 14.6887 52.5245 14.4343 52.5245 14.117C52.5245 13.7997 52.4335 13.5477 52.2515 13.361C52.0742 13.1697 51.8455 13.074 51.5655 13.074C51.2855 13.074 51.0545 13.1697 50.8725 13.361C50.6905 13.5477 50.5995 13.7997 50.5995 14.117C50.5995 14.4343 50.6905 14.6887 50.8725 14.88C51.0545 15.0667 51.2855 15.16 51.5655 15.16ZM59.1834 12.178C59.6548 12.178 60.0281 12.318 60.3034 12.598C60.5834 12.8733 60.7234 13.2887 60.7234 13.844V16H59.6314V14.012C59.6314 13.7133 59.5684 13.4917 59.4424 13.347C59.3211 13.1977 59.1461 13.123 58.9174 13.123C58.6608 13.123 58.4578 13.207 58.3084 13.375C58.1591 13.5383 58.0844 13.7833 58.0844 14.11V16H56.9924V14.012C56.9924 13.4193 56.7544 13.123 56.2784 13.123C56.0264 13.123 55.8258 13.207 55.6764 13.375C55.5271 13.5383 55.4524 13.7833 55.4524 14.11V16H54.3604V12.234H55.4034V12.668C55.5434 12.5093 55.7138 12.388 55.9144 12.304C56.1198 12.22 56.3438 12.178 56.5864 12.178C56.8524 12.178 57.0928 12.2317 57.3074 12.339C57.5221 12.4417 57.6948 12.5933 57.8254 12.794C57.9794 12.598 58.1731 12.4463 58.4064 12.339C58.6444 12.2317 58.9034 12.178 59.1834 12.178ZM63.2212 12.178C63.8046 12.178 64.2526 12.318 64.5652 12.598C64.8779 12.8733 65.0342 13.291 65.0342 13.851V16H64.0122V15.531C63.8069 15.881 63.4242 16.056 62.8642 16.056C62.5749 16.056 62.3229 16.007 62.1082 15.909C61.8982 15.811 61.7372 15.6757 61.6252 15.503C61.5132 15.3303 61.4572 15.1343 61.4572 14.915C61.4572 14.565 61.5879 14.2897 61.8492 14.089C62.1152 13.8883 62.5236 13.788 63.0742 13.788H63.9422C63.9422 13.55 63.8699 13.368 63.7252 13.242C63.5806 13.1113 63.3636 13.046 63.0742 13.046C62.8736 13.046 62.6752 13.0787 62.4792 13.144C62.2879 13.2047 62.1246 13.2887 61.9892 13.396L61.5972 12.633C61.8026 12.4883 62.0476 12.3763 62.3322 12.297C62.6216 12.2177 62.9179 12.178 63.2212 12.178ZM63.1372 15.321C63.3239 15.321 63.4896 15.279 63.6342 15.195C63.7789 15.1063 63.8816 14.978 63.9422 14.81V14.425H63.1932C62.7452 14.425 62.5212 14.572 62.5212 14.866C62.5212 15.006 62.5749 15.118 62.6822 15.202C62.7942 15.2813 62.9459 15.321 63.1372 15.321ZM68.4516 15.818C68.3442 15.8973 68.2112 15.958 68.0526 16C67.8986 16.0373 67.7352 16.056 67.5626 16.056C67.1146 16.056 66.7669 15.9417 66.5196 15.713C66.2769 15.4843 66.1556 15.1483 66.1556 14.705V13.158H65.5746V12.318H66.1556V11.401H67.2476V12.318H68.1856V13.158H67.2476V14.691C67.2476 14.8497 67.2872 14.9733 67.3666 15.062C67.4506 15.146 67.5672 15.188 67.7166 15.188C67.8892 15.188 68.0362 15.1413 68.1576 15.048L68.4516 15.818Z" fill="white"/>
<path fill-rule="evenodd" clip-rule="evenodd" d="M14.2157 2.26417C12.5268 1.32861 10.4732 1.32861 8.78435 2.26417L2.87553 5.53748C1.10071 6.52067 0 8.38585 0 10.4101V16.592C0 18.6163 1.10071 20.4815 2.87552 21.4647L8.78435 24.738C10.4732 25.6735 12.5268 25.6735 14.2156 24.738L20.1245 21.4647C21.8993 20.4815 23 18.6163 23 16.592V10.4101C23 8.38585 21.8993 6.52067 20.1245 5.53748L14.2157 2.26417ZM12.7818 8.19844C11.9847 7.75715 11.0156 7.75715 10.2185 8.19844L7.42847 9.74303C6.59008 10.2072 6.07007 11.0881 6.07007 12.0441V14.9583C6.07007 15.9143 6.59008 16.7952 7.42847 17.2594L10.2185 18.804C11.0156 19.2453 11.9847 19.2453 12.7818 18.804L15.5718 17.2594C16.4102 16.7952 16.9302 15.9143 16.9302 14.9583V12.0441C16.9302 11.0881 16.4102 10.2072 15.5718 9.74303L12.7818 8.19844Z" fill="white"/>
<path d="M11.0668 11.7749C11.3348 11.6323 11.6607 11.6323 11.9287 11.7749L12.8668 12.274C13.1488 12.424 13.3236 12.7086 13.3236 13.0175V13.9591C13.3236 14.2681 13.1488 14.5527 12.8669 14.7027L11.9287 15.2018C11.6607 15.3443 11.3348 15.3443 11.0668 15.2018L10.1286 14.7027C9.84673 14.5527 9.67188 14.2681 9.67188 13.9591V13.0175C9.67188 12.7086 9.84673 12.424 10.1286 12.274L11.0668 11.7749Z" fill="white"/>
</svg>
