<svg width="52" height="31" viewBox="0 0 52 31" fill="none" xmlns="http://www.w3.org/2000/svg">
<path d="M2.95534 28.7806H0.896484V17.3594H2.95499V28.7806H2.95534Z" fill="white"/>
<path d="M15.7516 24.9927L15.7686 25.0397C15.7911 26.1953 15.3858 27.1353 14.5531 27.8597C13.7198 28.5841 12.5921 28.9461 11.169 28.9461C9.72893 28.9461 8.55859 28.4978 7.65795 27.6006C6.75696 26.7038 6.30664 25.5571 6.30664 24.161V21.9882C6.30664 20.5975 6.75141 19.4505 7.64096 18.5486C8.53051 17.6468 9.68664 17.1953 11.1097 17.1953C12.5667 17.1953 13.7146 17.5499 14.5531 18.2582C15.3917 18.9669 15.7994 19.9201 15.7772 21.1177L15.7602 21.1647H13.7697C13.7697 20.3962 13.5454 19.7972 13.0965 19.3685C12.6475 18.9399 11.9854 18.7254 11.1101 18.7254C10.2687 18.7254 9.60067 19.0336 9.10667 19.65C8.61232 20.2664 8.36549 21.0397 8.36549 21.9697V24.1561C8.36549 25.0967 8.61821 25.8753 9.12365 26.4914C9.62909 27.1078 10.311 27.416 11.1693 27.416C12.0221 27.416 12.6687 27.2051 13.1093 26.7829C13.5499 26.3606 13.77 25.7638 13.77 24.9923H15.7516V24.9927Z" fill="white"/>
<path d="M25.7174 25.8393C25.7174 25.3654 25.5268 24.9777 25.1458 24.6759C24.7644 24.3738 24.0912 24.103 23.1254 23.8635C21.7474 23.5289 20.6869 23.0857 19.9444 22.5337C19.2018 21.9821 18.8305 21.2592 18.8305 20.3648C18.8305 19.4444 19.2413 18.6862 20.0629 18.0897C20.8849 17.4936 21.945 17.1953 23.244 17.1953C24.5994 17.1953 25.688 17.5342 26.5096 18.2112C27.3315 18.8882 27.7281 19.7003 27.6997 20.6466L27.6827 20.6937H25.7091C25.7091 20.1082 25.4945 19.6336 25.0653 19.2702C24.6362 18.9067 24.0233 18.725 23.227 18.725C22.4757 18.725 21.8985 18.8764 21.4947 19.179C21.0908 19.4818 20.8891 19.8731 20.8891 20.353C20.8891 20.7863 21.1078 21.1462 21.5456 21.433C21.9831 21.7199 22.7077 21.991 23.7185 22.2469C25.0459 22.5761 26.0537 23.0312 26.7429 23.6116C27.432 24.1921 27.7766 24.9321 27.7766 25.8315C27.7766 26.7832 27.3658 27.5404 26.5439 28.1023C25.7223 28.6646 24.6424 28.9457 23.3039 28.9457C22.0164 28.9457 20.8866 28.6279 19.9156 27.9926C18.9443 27.3573 18.4728 26.4907 18.5012 25.3921L18.5179 25.3451H20.5001C20.5001 26.0406 20.7597 26.5598 21.2797 26.9022C21.7994 27.2447 22.474 27.416 23.3043 27.416C24.0666 27.416 24.6594 27.2742 25.083 26.9906C25.5053 26.7077 25.7174 26.3236 25.7174 25.8393Z" fill="white"/>
<path d="M7.57695 8.01739H2.71565V11.6255H8.35557V13.1552H0.861328V1.73438H8.30218V3.26406H2.71565V6.48806H7.57695V8.01739Z" fill="white"/>
<path d="M13.6229 10.1667L13.8212 10.9592H13.867L14.0576 10.1828L16.7135 1.73473H18.6901L14.7219 13.1556H12.9591L8.99805 1.73438H10.9747L13.6229 10.1667Z" fill="white"/>
<path d="M24.6692 10.4885H20.3192L19.4342 13.1556H17.5566L21.6393 1.73438H23.3949L27.4318 13.1556H25.5466L24.6692 10.4885ZM20.8534 8.89609H24.1426L22.5323 4.01697H22.4866L20.8534 8.89609Z" fill="white"/>
<path d="M36.8597 2.64697C36.3429 3.17824 36.0586 3.88447 36.0586 4.63489C36.0579 5.38566 36.3422 6.09153 36.859 6.62281C37.3752 7.15337 38.0616 7.44555 38.791 7.44555C39.5218 7.44555 40.2089 7.15301 40.7258 6.62209C41.2423 6.09117 41.5269 5.38601 41.5266 4.6356C41.5262 3.08524 40.2994 1.82422 38.7914 1.82422C38.0616 1.82422 37.3756 2.1164 36.8597 2.64697Z" fill="white"/>
<path d="M36.7819 13.3477C36.2449 13.8997 35.9492 14.6337 35.9492 15.4133C35.9482 16.1937 36.2439 16.927 36.7812 17.4789C37.3175 18.0301 38.031 18.3341 38.7888 18.3337C39.5483 18.3337 40.2625 18.0298 40.7991 17.4778C41.3357 16.9263 41.6318 16.1933 41.6314 15.4137C41.6311 13.8027 40.3561 12.4922 38.7891 12.4922C38.031 12.4925 37.3182 12.7965 36.7819 13.3477Z" fill="white"/>
<path d="M36.6644 24.0415C36.1479 24.5724 35.8633 25.279 35.8633 26.0301C35.8629 26.7805 36.1472 27.4864 36.6637 28.0173C37.1803 28.5483 37.866 28.8404 38.5954 28.8401C39.3268 28.8401 40.0143 28.5475 40.5308 28.0163C41.047 27.4857 41.3316 26.7802 41.3312 26.0305C41.3316 25.279 41.047 24.5728 40.5304 24.0422C40.0139 23.5113 39.3272 23.2188 38.596 23.2188C37.867 23.2191 37.1806 23.5113 36.6644 24.0415Z" fill="white"/>
<path d="M47.139 13.3938C46.6222 13.925 46.3379 14.6313 46.3379 15.3817C46.3382 16.9313 47.5641 18.1927 49.0707 18.1927C49.8014 18.1927 50.4889 17.9005 51.0058 17.3693C51.5219 16.8387 51.8066 16.1325 51.8066 15.3821C51.8066 13.8328 50.5793 12.5714 49.071 12.5703C48.3416 12.571 47.6549 12.8632 47.139 13.3938Z" fill="white"/>
<path d="M33.5492 7.20384C33.7024 7.20455 33.8643 7.2213 34.0501 7.25622C34.1014 7.26655 34.1548 7.27973 34.2075 7.29327C34.3143 7.32071 34.4197 7.35385 34.5209 7.39198L34.5389 7.3991C34.5895 7.41906 34.6384 7.43794 34.6863 7.46039C34.7875 7.50849 34.8894 7.56586 34.9996 7.63677C34.9996 7.63677 35.0735 7.67846 35.0853 7.68559L35.5415 8.0893C35.5734 8.12386 35.6022 8.16163 35.6309 8.1994C35.6514 8.22541 35.6718 8.25214 35.6888 8.27245C35.7082 8.29739 35.7287 8.32198 35.7498 8.34692C35.7703 8.37079 35.7918 8.39502 35.8095 8.42175L35.8265 8.44811L35.8476 8.47092C36.5645 9.25233 37.5955 9.70914 38.6764 9.72553C39.7611 9.74121 40.8081 9.31433 41.5489 8.55252C41.5804 8.51974 41.6116 8.4866 41.6425 8.45239L41.6751 8.4107C41.6806 8.40286 41.6872 8.39609 41.6934 8.38932C41.7094 8.37079 41.726 8.35191 41.7458 8.32625C41.803 8.24964 41.8616 8.17018 41.9219 8.10284L42.3812 7.69164C42.3937 7.68345 42.4069 7.67703 42.4201 7.66884C42.4395 7.65815 42.4596 7.6471 42.4832 7.63249C42.5996 7.55873 42.6957 7.50457 42.7889 7.4611C42.8416 7.43652 42.895 7.41621 42.9512 7.39411C43.051 7.35599 43.1585 7.32142 43.2614 7.29434L43.3162 7.28116C43.3498 7.27261 43.3831 7.26406 43.4202 7.25693C43.6123 7.22094 43.7696 7.20348 43.9156 7.20312C45.4236 7.20419 46.6511 8.46593 46.6511 10.0149C46.6508 10.7653 46.3665 11.4704 45.8503 12.0014C45.3335 12.5326 44.6464 12.8252 43.9152 12.8252C43.7665 12.8252 43.6095 12.8081 43.415 12.771C43.3727 12.7639 43.3332 12.7528 43.293 12.7422L43.2708 12.7365C43.1508 12.7044 43.0461 12.6712 42.9477 12.6335C42.8933 12.6125 42.8409 12.5932 42.7882 12.5672C42.6988 12.5255 42.6038 12.4728 42.4793 12.3951C42.4603 12.3826 42.3934 12.3449 42.3809 12.337L41.9323 11.9376C41.8994 11.9012 41.8702 11.862 41.8401 11.8228L41.7853 11.7519C41.7662 11.7281 41.7461 11.7049 41.7264 11.6821C41.7233 11.6785 41.7198 11.6746 41.717 11.6714L41.7149 11.6529L41.6276 11.5574C40.9107 10.777 39.8786 10.3199 38.7981 10.3046C37.7141 10.2882 36.6675 10.7154 35.9266 11.4761C35.8947 11.5089 35.8632 11.5435 35.832 11.577L35.8157 11.5976L35.8036 11.6137C35.7973 11.6215 35.7901 11.6286 35.7835 11.6368C35.7658 11.6557 35.7495 11.676 35.7301 11.7003L35.702 11.7377C35.6514 11.805 35.6032 11.8702 35.554 11.9255L35.0846 12.342C35.0738 12.3488 34.9861 12.3983 34.9861 12.3983C34.8849 12.4649 34.7837 12.5216 34.6856 12.5683C34.6339 12.5921 34.5802 12.6128 34.5251 12.6338C34.4214 12.6734 34.3171 12.7065 34.2037 12.7357C34.1527 12.75 34.0584 12.7621 34.0103 12.7717C33.8147 12.8084 33.5059 12.8245 33.5059 12.8245V12.8223V7.20562C33.5062 7.20562 33.5367 7.20384 33.5492 7.20384Z" fill="white"/>
<path d="M33.9735 17.9863C34.0231 17.9963 34.1132 18.0095 34.167 18.0234C34.2789 18.0522 34.4034 18.0857 34.5046 18.1246C34.5611 18.1463 34.6263 18.1666 34.6769 18.1901C34.7722 18.2354 34.8787 18.2928 34.9944 18.3676L35.0454 18.3954C35.0603 18.4036 35.0763 18.4114 35.0891 18.42L35.5422 18.8215C35.5737 18.855 35.6015 18.8921 35.6302 18.9288C35.6503 18.9552 35.6708 18.9815 35.6871 19.0018C35.7075 19.0279 35.728 19.0524 35.7491 19.0774C35.7696 19.1016 35.7911 19.1255 35.8081 19.1522L35.8254 19.1779L35.8466 19.2007C36.5642 19.9814 37.5962 20.4389 38.6774 20.4546C39.7615 20.4703 40.808 20.043 41.5485 19.2819C41.5804 19.2491 41.6116 19.2156 41.6425 19.1814L41.6598 19.1608L41.6723 19.144C41.6782 19.1355 41.6855 19.128 41.6924 19.1205C41.709 19.1013 41.7264 19.0813 41.7437 19.0585L41.7666 19.0282C41.8196 18.9577 41.8706 18.8907 41.9222 18.8319L42.3809 18.4221C42.3937 18.4143 42.4069 18.4071 42.4197 18.3997C42.4405 18.3875 42.462 18.3754 42.4845 18.3612C42.5916 18.2924 42.6911 18.2368 42.7906 18.1901C42.8416 18.1663 42.8943 18.1456 42.9515 18.1239C43.0475 18.0872 43.1543 18.0533 43.2676 18.0237L43.2902 18.0177C43.3321 18.0066 43.3727 17.9956 43.4233 17.9867C43.606 17.9507 43.7668 17.9336 43.9163 17.9336C45.4236 17.9336 46.6515 19.1943 46.6518 20.7436C46.6515 21.4943 46.3668 22.2002 45.8503 22.7311C45.3331 23.2624 44.646 23.5549 43.9152 23.5549C43.7682 23.5553 43.6108 23.5382 43.4233 23.5029C43.3765 23.4936 43.3321 23.4819 43.2877 23.4705L43.2701 23.4659C43.156 23.4359 43.0485 23.4017 42.9477 23.3625C42.8925 23.3415 42.8392 23.3215 42.7885 23.298C42.6977 23.2553 42.6007 23.2004 42.472 23.1188C42.472 23.1188 42.4024 23.0796 42.3906 23.0725L42.3826 23.0643L42.3705 23.0575L41.9354 22.6698C41.9004 22.6321 41.8688 22.5904 41.838 22.5494L41.7849 22.4813C41.7666 22.4582 41.7485 22.4368 41.7302 22.4158C41.7076 22.3894 41.6848 22.3648 41.6657 22.336L41.6491 22.3099L41.6283 22.2875C40.9113 21.5068 39.88 21.0496 38.7991 21.0332C37.7144 21.0169 36.6682 21.4441 35.9277 22.2052C35.8958 22.238 35.8642 22.2715 35.8327 22.306L35.8157 22.3249L35.8001 22.3477C35.7946 22.3552 35.7883 22.3616 35.7824 22.3684C35.7658 22.3873 35.7491 22.4062 35.729 22.4318L35.7172 22.4475C35.6618 22.5227 35.608 22.5939 35.5536 22.6549L35.0846 23.0725C35.0735 23.0796 35.0617 23.0853 35.0503 23.0921L34.9872 23.1284C34.887 23.1936 34.7858 23.2506 34.6887 23.297C34.6346 23.3226 34.5805 23.3436 34.5261 23.3643C34.4197 23.4046 34.3153 23.4377 34.2089 23.4655C34.1562 23.479 34.0231 23.4922 33.9742 23.5022C33.8286 23.5296 33.5059 23.5428 33.5059 23.5489V17.9397C33.5059 17.9454 33.8244 17.9582 33.9735 17.9863Z" fill="white"/>
<path d="M33.6533 2.31641H32.6133V29.0405H33.6533V2.31641Z" fill="white"/>
<path d="M35.5246 18.7581C36.0411 19.2894 36.3143 19.9949 36.3143 20.7453C36.3143 21.4964 36.0463 22.2027 35.5294 22.7343C35.0222 23.2556 34.3476 23.5449 33.6543 23.5546V17.9375C34.3476 17.9471 35.0181 18.2368 35.5246 18.7581Z" fill="white"/>
<path d="M36.4195 13.9151C36.4507 13.883 36.4843 13.8502 36.5145 13.8167L36.5329 13.7993L36.5492 13.775L36.5658 13.7558C36.5845 13.7344 36.6029 13.7123 36.6157 13.6956L36.6372 13.6671C36.6913 13.5947 36.7429 13.5278 36.7953 13.469L37.255 13.0567C37.2674 13.0489 37.2803 13.0424 37.2931 13.035C37.3136 13.0232 37.3333 13.0114 37.3558 12.9983C37.4654 12.9288 37.5663 12.8728 37.6613 12.8276C37.7153 12.8026 37.7694 12.7816 37.8218 12.761C37.9188 12.7239 38.0277 12.689 38.1404 12.658C38.191 12.6455 38.2398 12.6327 38.2957 12.6227C38.4794 12.586 38.6357 12.57 38.7893 12.5703C39.5197 12.57 40.2068 12.8621 40.7234 13.3927C41.2402 13.9236 41.5248 14.7022 41.5248 15.453C41.5242 16.2041 41.2395 16.8857 40.723 17.515H40.7227C40.2061 17.8296 39.5194 18.2647 38.7903 18.264C38.6375 18.2636 38.4783 18.2102 38.3022 18.1767C38.2475 18.1653 38.1913 18.1336 38.1438 18.1222C38.0308 18.0912 37.924 18.047 37.8169 18.006C37.7642 17.9871 37.7153 17.9625 37.6613 17.9365C37.5638 17.8906 37.4612 17.8314 37.351 17.7612C37.3323 17.7498 37.2706 17.7138 37.2598 17.707L36.8147 17.313L36.8043 17.3019C36.7745 17.2716 36.7499 17.2378 36.7235 17.2039C36.7006 17.1736 36.6771 17.1433 36.6632 17.1273C36.6417 17.0992 36.6192 17.0714 36.596 17.0443C36.5769 17.0208 36.5571 16.9987 36.5401 16.973L36.5225 16.9463L36.501 17.0172C35.7841 16.2369 34.6695 15.8585 33.5879 15.8585C33.5859 15.8585 33.6538 15.8585 33.6538 15.8585V15.0856C34.3471 15.0703 35.704 14.6502 36.4195 13.9151Z" fill="white"/>
<path d="M35.4972 8.02515C36.0137 8.55642 36.3004 9.26265 36.3007 10.0138C36.3004 10.7642 36.0116 11.4697 35.4951 12.001C35.0018 12.508 34.3476 12.7942 33.6543 12.8187V7.20703C34.3476 7.2309 35.0035 7.51739 35.4972 8.02515Z" fill="white"/>
</svg>
