<svg width="679" height="629" viewBox="0 0 679 629" fill="none" xmlns="http://www.w3.org/2000/svg">
<circle cx="397.263" cy="341.97" r="281.266" stroke="#F1F1F1" stroke-width="0.939227" stroke-dasharray="7.51 7.51"/>
<path d="M213.547 4.95684C193.002 22.9755 192.958 52.228 213.449 70.2942C213.482 70.323 213.515 70.3518 213.547 70.3806C214.023 70.7841 214.78 70.7725 215.239 70.3547C215.686 69.9471 215.686 69.3009 215.239 68.8933C195.629 51.6938 195.589 23.7726 215.149 6.52946C215.179 6.50303 215.209 6.47674 215.239 6.45044C215.708 6.0397 215.709 5.37245 215.242 4.96C214.775 4.54755 214.016 4.54623 213.547 4.95684Z" fill="#00FF19"/>
<path d="M224.504 10.9113C216.4 17.9927 211.855 27.6308 211.881 37.6772C211.855 47.7236 216.4 57.3616 224.504 64.4431C224.979 64.8466 225.737 64.835 226.196 64.4172C226.643 64.0096 226.643 63.3634 226.196 62.9558C210.319 49.0193 210.296 26.404 226.145 12.4429C226.162 12.4281 226.179 12.4133 226.196 12.3986C226.655 11.9808 226.641 11.315 226.166 10.9113C225.703 10.5177 224.968 10.5177 224.504 10.9113Z" fill="#00FF19"/>
<path d="M234.77 21.2782C229.761 25.7227 226.951 31.7767 226.969 38.0872C226.951 44.3977 229.761 50.4517 234.77 54.8963C235.142 55.2278 235.743 55.2272 236.114 54.895C236.484 54.5629 236.484 54.0249 236.112 53.6935C226.474 45.1003 226.451 31.1468 236.06 22.5278C236.077 22.5122 236.095 22.4966 236.112 22.481C236.484 22.1495 236.484 21.6116 236.114 21.2794C235.743 20.9473 235.142 20.9468 234.77 21.2782Z" fill="#00FF19"/>
<rect x="242.212" y="64.3466" width="53.9275" height="101.089" rx="26.9638" transform="rotate(-90 242.212 64.3466)" stroke="#00FF19" stroke-width="2.66619"/>
<circle cx="264.694" cy="37.3837" r="9.76371" transform="rotate(-90 264.694 37.3837)" stroke="#00FF19" stroke-width="2.66619"/>
<path d="M72.811 188.386L72.8116 188.385H143.44L143.441 188.386C143.441 207.682 127.798 223.324 108.502 223.324H108.126H107.75C88.4536 223.324 72.811 207.682 72.811 188.386Z" stroke="#00FF19" stroke-width="2.62983"/>
<circle cx="108.124" cy="205.539" r="8.89503" stroke="#00FF19" stroke-width="2.87293"/>
<mask id="path-9-inside-1_7158_7535" fill="white">
<rect x="71.4961" y="159.516" width="73.2597" height="25.046" rx="1.43646"/>
</mask>
<rect x="71.4961" y="159.516" width="73.2597" height="25.046" rx="1.43646" stroke="#00FF19" stroke-width="5.25967" mask="url(#path-9-inside-1_7158_7535)"/>
<path opacity="0.99" d="M30.4538 362.506L31.2822 362.461L31.5194 361.666C34.4347 351.899 43.4516 344.788 54.1141 344.788C64.3837 344.788 73.1268 351.384 76.3621 360.598L76.6738 361.486L77.6084 361.379C78.3369 361.296 79.078 361.253 79.8296 361.253C89.2268 361.253 97.0731 367.96 98.8689 376.878L99.0594 377.824L100.025 377.824C109.679 377.825 117.279 384.81 117.279 393.163C117.279 401.314 110.045 408.16 100.719 408.489L38.9467 408.501H38.9465H38.675H29.4084C17.852 407.34 8.80794 397.426 8.80794 385.487C8.80794 373.197 18.3942 363.164 30.4538 362.506Z" stroke="#00FF19" stroke-width="2.35806"/>
<rect x="88.0782" y="530.693" width="96.2191" height="63.3947" rx="2.73201" stroke="#00FF19" stroke-width="2.25414"/>
<line x1="86.9512" y1="580.721" x2="185.424" y2="580.721" stroke="#00FF19" stroke-width="2.25414"/>
<path d="M151.542 602.638H120.785L123.568 594.561H149.339L151.542 602.638Z" stroke="#00FF19" stroke-width="2.25414"/>
<path d="M111.91 602.356C111.957 602.016 112.248 601.762 112.592 601.762H158.942C159.286 601.762 159.577 602.016 159.624 602.356C159.68 602.769 159.359 603.137 158.942 603.137H112.592C112.175 603.137 111.854 602.769 111.91 602.356Z" stroke="#00FF19" stroke-width="1.37508"/>
<circle cx="137.141" cy="588.008" r="2.49847" stroke="#00FF19" stroke-width="1.87845"/>
<ellipse cx="95.1591" cy="536.95" rx="2.46183" ry="2.46183" stroke="#00FF19" stroke-width="1.87845"/>
<ellipse cx="104.184" cy="536.95" rx="2.46183" ry="2.46183" stroke="#00FF19" stroke-width="1.87845"/>
<mask id="path-18-inside-2_7158_7535" fill="white">
<rect x="95.1602" y="543.512" width="36.9275" height="13.9504" rx="1.92954"/>
</mask>
<rect x="95.1602" y="543.512" width="36.9275" height="13.9504" rx="1.92954" stroke="#00FF19" stroke-width="4.50829" mask="url(#path-18-inside-2_7158_7535)"/>
<mask id="path-19-inside-3_7158_7535" fill="white">
<rect x="140.289" y="543.512" width="36.9275" height="30.3626" rx="1.92954"/>
</mask>
<rect x="140.289" y="543.512" width="36.9275" height="30.3626" rx="1.92954" stroke="#00FF19" stroke-width="4.50829" mask="url(#path-19-inside-3_7158_7535)"/>
<circle cx="397.264" cy="341.973" r="238.761" stroke="#F1F1F1" stroke-width="0.939227"/>
<circle cx="397.264" cy="341.971" r="196.255" stroke="#F1F1F1" stroke-width="0.939227"/>
<circle cx="396.719" cy="341.428" r="147.755" stroke="#F1F1F1" stroke-width="0.939227"/>
</svg>
