<svg width="362" height="432" viewBox="0 0 362 432" fill="none" xmlns="http://www.w3.org/2000/svg">
<circle cx="277.496" cy="232.697" r="194.181" stroke="#F1F1F1" stroke-width="0.648352" stroke-dasharray="5.19 5.19"/>
<path d="M137.737 4.68085C123.554 17.1192 123.524 37.3123 137.669 49.7835C137.692 49.8033 137.714 49.8232 137.737 49.8431C138.065 50.1216 138.588 50.1136 138.905 49.8252C139.214 49.5439 139.214 49.0978 138.905 48.8164C125.368 36.9435 125.34 17.6694 138.843 5.76643C138.863 5.74819 138.884 5.73004 138.905 5.71189C139.228 5.42836 139.229 4.96775 138.907 4.68303C138.585 4.39832 138.061 4.39741 137.737 4.68085Z" fill="#00FF19"/>
<path d="M145.298 8.79226C139.704 13.6806 136.566 20.3338 136.584 27.2688C136.566 34.2039 139.704 40.8571 145.298 45.7454C145.626 46.024 146.149 46.016 146.465 45.7276C146.774 45.4462 146.774 45.0001 146.465 44.7188C135.506 35.0984 135.49 19.4869 146.431 9.84953C146.442 9.83927 146.454 9.82911 146.465 9.81894C146.782 9.53051 146.773 9.0709 146.445 8.79226C146.125 8.52053 145.618 8.52053 145.298 8.79226Z" fill="#00FF19"/>
<path d="M152.378 15.9461C148.919 19.0142 146.98 23.1933 146.992 27.5495C146.98 31.9057 148.919 36.0848 152.378 39.1529C152.634 39.3817 153.049 39.3813 153.305 39.152C153.561 38.9227 153.56 38.5513 153.304 38.3225C146.651 32.3906 146.635 22.7585 153.268 16.8088C153.28 16.798 153.292 16.7872 153.304 16.7765C153.56 16.5476 153.561 16.1763 153.305 15.947C153.049 15.7177 152.634 15.7174 152.378 15.9461Z" fill="#00FF19"/>
<rect x="157.52" y="45.6813" width="37.2264" height="69.7821" rx="18.6132" transform="rotate(-90 157.52 45.6813)" stroke="#00FF19" stroke-width="1.84048"/>
<circle cx="173.039" cy="27.0703" r="6.73993" transform="rotate(-90 173.039 27.0703)" stroke="#00FF19" stroke-width="1.84048"/>
<path d="M55.3706 126.85L55.371 126.849H104.126L104.127 126.85C104.127 140.17 93.3285 150.968 80.0083 150.968H79.7486H79.4889C66.1687 150.968 55.3706 140.17 55.3706 126.85Z" stroke="#00FF19" stroke-width="1.81538"/>
<circle cx="79.7491" cy="138.687" r="6.14027" stroke="#00FF19" stroke-width="1.98319"/>
<mask id="path-9-inside-1_7158_7536" fill="white">
<rect x="54.4629" y="106.918" width="50.5714" height="17.2894" rx="0.991597"/>
</mask>
<rect x="54.4629" y="106.918" width="50.5714" height="17.2894" rx="0.991597" stroke="#00FF19" stroke-width="3.63077" mask="url(#path-9-inside-1_7158_7536)"/>
<path opacity="0.99" d="M22.2385 247.037L22.8104 247.006L22.9741 246.457C24.9866 239.714 31.211 234.806 38.5713 234.806C45.6604 234.806 51.6959 239.359 53.9292 245.72L54.1444 246.333L54.7896 246.259C55.2924 246.201 55.804 246.172 56.3228 246.172C62.8098 246.172 68.2261 250.802 69.4657 256.957L69.5972 257.611L70.2635 257.611C76.928 257.611 82.174 262.433 82.174 268.199C82.174 273.826 77.1806 278.552 70.7432 278.779L28.1012 278.787H28.1011H27.9137H21.5169C13.5395 277.986 7.29631 271.142 7.29631 262.9C7.29631 254.417 13.9137 247.491 22.2385 247.037Z" stroke="#00FF19" stroke-width="1.62778"/>
<rect x="65.3933" y="365.731" width="66.4204" height="43.7616" rx="1.88592" stroke="#00FF19" stroke-width="1.55604"/>
<line x1="64.6152" y1="400.265" x2="132.592" y2="400.265" stroke="#00FF19" stroke-width="1.55604"/>
<path d="M109.203 415.393H87.9718L89.8926 409.817H107.682L109.203 415.393Z" stroke="#00FF19" stroke-width="1.55604"/>
<path d="M81.8461 415.197C81.8783 414.962 82.0791 414.787 82.3164 414.787H114.313C114.55 414.787 114.751 414.962 114.783 415.197C114.822 415.482 114.6 415.736 114.313 415.736H82.3164C82.0287 415.736 81.8072 415.482 81.8461 415.197Z" stroke="#00FF19" stroke-width="0.949221"/>
<circle cx="99.2617" cy="405.295" r="1.7247" stroke="#00FF19" stroke-width="1.2967"/>
<ellipse cx="70.2814" cy="370.051" rx="1.69941" ry="1.69941" stroke="#00FF19" stroke-width="1.2967"/>
<ellipse cx="76.5119" cy="370.051" rx="1.69941" ry="1.69941" stroke="#00FF19" stroke-width="1.2967"/>
<mask id="path-18-inside-2_7158_7536" fill="white">
<rect x="70.2793" y="374.582" width="25.4912" height="9.63" rx="1.33197"/>
</mask>
<rect x="70.2793" y="374.582" width="25.4912" height="9.63" rx="1.33197" stroke="#00FF19" stroke-width="3.11209" mask="url(#path-18-inside-2_7158_7536)"/>
<mask id="path-19-inside-3_7158_7536" fill="white">
<rect x="101.434" y="374.582" width="25.4912" height="20.9594" rx="1.33197"/>
</mask>
<rect x="101.434" y="374.582" width="25.4912" height="20.9594" rx="1.33197" stroke="#00FF19" stroke-width="3.11209" mask="url(#path-19-inside-3_7158_7536)"/>
<circle cx="278.142" cy="232.048" r="165.005" stroke="#F1F1F1" stroke-width="0.648352"/>
<circle cx="277.496" cy="232.697" r="135.83" stroke="#F1F1F1" stroke-width="0.648352"/>
<circle cx="277.494" cy="232.697" r="102.115" stroke="#F1F1F1" stroke-width="0.648352"/>
</svg>
