<svg width="52" height="54" viewBox="0 0 52 54" fill="none" xmlns="http://www.w3.org/2000/svg">
<path d="M3.0918 48.501V18.9834C3.0918 18.0495 3.57003 17.1807 4.35907 16.681L24.6052 3.86136C25.6115 3.22413 26.8996 3.24266 27.8872 3.90859L48.1073 17.5423C48.9344 18.0999 49.4302 19.0322 49.4302 20.0297V20.3538V48.501C49.4302 49.6056 48.5347 50.501 47.4302 50.501H20.2994C19.1949 50.501 18.2994 49.6056 18.2994 48.501V44.7926C18.2994 43.688 19.1948 42.7926 20.2994 42.7926H38.5186C39.6232 42.7926 40.5186 41.8972 40.5186 40.7926V22.7266C40.5186 21.6764 39.9694 20.7027 39.0707 20.1594L27.8348 13.3664C26.8695 12.7827 25.6582 12.79 24.6999 13.3852L13.8007 20.1545C12.9194 20.7019 12.3835 21.6656 12.3835 22.703V48.501C12.3835 49.6056 11.488 50.501 10.3835 50.501H5.0918C3.98723 50.501 3.0918 49.6056 3.0918 48.501Z" fill="white"/>
<path d="M32.5576 26.2491L26.9711 23.0429C26.5208 22.7845 25.9677 22.7825 25.5155 23.0375L19.8307 26.2444C19.3619 26.5088 19.0748 27.008 19.0822 27.5462L19.1732 34.2358C19.1841 35.0407 19.8398 35.6874 20.6447 35.6874H31.825C32.6378 35.6874 33.2967 35.0285 33.2967 34.2157V27.5255C33.2967 26.9984 33.0148 26.5115 32.5576 26.2491Z" fill="#27C800"/>
</svg>
