<svg width="49" height="31" viewBox="0 0 49 31" fill="none" xmlns="http://www.w3.org/2000/svg">
<g clip-path="url(#clip0_7134_7901)">
<path d="M17.2655 16.5183C16.9693 16.779 16.6701 16.9687 16.368 17.0872C16.0658 17.1999 15.7222 17.2561 15.3371 17.2561C14.9994 17.2561 14.6824 17.1969 14.3862 17.0783C14.0959 16.9539 13.8412 16.785 13.622 16.5716C13.4028 16.3583 13.231 16.1064 13.1065 15.816C12.9821 15.5255 12.9199 15.2144 12.9199 14.8825C12.9199 14.5447 12.9792 14.2306 13.0977 13.9402C13.2161 13.6498 13.3761 13.3979 13.5775 13.1845C13.7849 12.9712 14.0308 12.8052 14.3151 12.6867C14.5995 12.5622 14.9046 12.5 15.2305 12.5C15.5622 12.5 15.8644 12.5622 16.1369 12.6867C16.4153 12.8052 16.6523 12.9712 16.8478 13.1845C17.0493 13.3979 17.2062 13.6557 17.3188 13.958C17.4314 14.2543 17.4877 14.5803 17.4877 14.9359V15.247H14.3329C14.3981 15.5019 14.5284 15.7093 14.7239 15.8693C14.9194 16.0293 15.1475 16.1093 15.4082 16.1093C15.5978 16.1093 15.7696 16.0767 15.9236 16.0115C16.0836 15.9464 16.2139 15.8515 16.3146 15.7271L17.2655 16.5183ZM15.2216 13.6201C14.9965 13.6201 14.8068 13.6913 14.6528 13.8335C14.4988 13.9757 14.3922 14.1743 14.3329 14.4291H16.1547C16.0954 14.1802 15.9829 13.9846 15.817 13.8424C15.6511 13.6942 15.4526 13.6201 15.2216 13.6201Z" fill="white"/>
<path d="M18.0608 13.7839C18.0608 13.2291 18.0484 12.8115 18.0234 12.531H19.2665C19.3039 12.8177 19.3226 13.0889 19.3226 13.3444H19.3413C19.4472 13.0764 19.6404 12.8582 19.9207 12.6899C20.2074 12.5216 20.5252 12.4375 20.8741 12.4375C21.4099 12.4375 21.8149 12.6183 22.0891 12.9798C22.3632 13.3413 22.5003 13.8774 22.5003 14.588V17.2059H21.1732V14.5786C21.1732 14.2046 21.114 13.9335 20.9956 13.7652C20.8772 13.5969 20.6871 13.5127 20.4254 13.5127C20.1139 13.5127 19.8616 13.6187 19.6684 13.8306C19.4815 14.0363 19.388 14.3106 19.388 14.6534V17.2059H18.0608V13.7839Z" fill="white"/>
<path d="M25.5319 16.0105C25.7215 16.0105 25.8933 15.972 26.0473 15.8949C26.2073 15.8178 26.3436 15.7053 26.4561 15.5571L27.3093 16.4016C27.09 16.6683 26.8146 16.8787 26.4828 17.0328C26.1569 17.181 25.8104 17.2551 25.4431 17.2551C25.1113 17.2551 24.8003 17.1958 24.51 17.0773C24.2196 16.9528 23.9679 16.7839 23.7546 16.5705C23.5413 16.3572 23.3725 16.1053 23.248 15.8149C23.1296 15.5245 23.0703 15.2133 23.0703 14.8814C23.0703 14.5496 23.1296 14.2384 23.248 13.948C23.3725 13.6576 23.5413 13.4057 23.7546 13.1923C23.9679 12.979 24.2196 12.813 24.51 12.6945C24.8003 12.57 25.1113 12.5078 25.4431 12.5078C25.8163 12.5078 26.1688 12.5819 26.5006 12.7301C26.8383 12.8723 27.1226 13.0797 27.3537 13.3524L26.4739 14.2325C26.3258 14.0606 26.1747 13.9362 26.0207 13.8591C25.8667 13.7761 25.6919 13.7346 25.4964 13.7346C25.212 13.7346 24.975 13.8443 24.7854 14.0636C24.5959 14.2829 24.5011 14.5555 24.5011 14.8814C24.5011 15.2015 24.5988 15.4711 24.7943 15.6904C24.9898 15.9038 25.2357 16.0105 25.5319 16.0105Z" fill="white"/>
<path d="M36.4962 15.691C36.7843 15.691 37.0509 15.6236 37.296 15.4887C37.5412 15.3538 37.7649 15.1545 37.9671 14.8909L39.006 15.8749C38.724 16.2428 38.3502 16.5401 37.8844 16.767C37.4186 16.9938 36.9375 17.1073 36.4411 17.1073C35.963 17.1073 35.5156 17.0214 35.0989 16.8498C34.6821 16.6781 34.3236 16.4451 34.0233 16.1508C33.723 15.8565 33.484 15.5071 33.3062 15.1024C33.1346 14.6978 33.0488 14.2625 33.0488 13.7965C33.0488 13.3306 33.1346 12.8953 33.3062 12.4906C33.484 12.0798 33.723 11.7273 34.0233 11.433C34.3297 11.1387 34.6883 10.9057 35.0989 10.7341C35.5156 10.5624 35.963 10.4766 36.4411 10.4766C36.9559 10.4766 37.4493 10.59 37.9212 10.8168C38.3931 11.0437 38.77 11.3472 39.0519 11.7273L37.9855 12.7389C37.7772 12.4569 37.5412 12.2454 37.2777 12.1044C37.0203 11.9572 36.7414 11.8836 36.4411 11.8836C36.1898 11.8836 35.9569 11.9327 35.7424 12.0308C35.5279 12.1289 35.341 12.2638 35.1816 12.4354C35.0284 12.601 34.9058 12.8033 34.8139 13.0424C34.7281 13.2754 34.6852 13.5267 34.6852 13.7965C34.6852 14.0663 34.7312 14.3177 34.8231 14.5506C34.915 14.7836 35.0407 14.9859 35.2 15.1576C35.3655 15.3231 35.5585 15.455 35.7792 15.5531C35.9998 15.645 36.2388 15.691 36.4962 15.691Z" fill="white"/>
<path d="M39.5338 13.6616C39.5338 13.1361 39.5246 12.759 39.5059 12.5302H40.7573C40.7822 12.7713 40.7944 13.0434 40.7944 13.3463V13.439H40.8316C40.9492 13.1361 41.1591 12.895 41.4621 12.7157C41.7708 12.5302 42.1232 12.4375 42.5185 12.4375C42.599 12.4375 42.6947 12.4468 42.8062 12.4653V13.4946C42.7935 13.4885 42.7319 13.4854 42.6208 13.4854C42.3055 13.4854 42.0117 13.5657 41.7402 13.7265C41.4682 13.8872 41.2518 14.1005 41.0913 14.3663C40.9304 14.6321 40.85 14.9196 40.85 15.2287V17.1668H39.5338V13.6616Z" fill="white"/>
<path d="M30.0213 15.5788L31.0459 12.6719H32.5268L30.0293 18.8181H28.4683L29.1807 17.1364L27.4316 12.6719H28.9446L30.0213 15.5788Z" fill="white"/>
<path d="M45.496 15.5007L46.5207 12.5938H48.0015L45.5041 18.74H43.9432L44.6556 17.0582L42.9062 12.5938H44.4193L45.496 15.5007Z" fill="white"/>
<path d="M12.0285 9.94854C12.0321 10.2977 12.318 10.5779 12.6671 10.5742C13.0161 10.5706 13.2961 10.2846 13.2925 9.93547L12.0285 9.94854ZM9.88779 13.3332C10.2368 13.3308 10.5178 13.0458 10.5154 12.6966C10.513 12.3474 10.2281 12.0663 9.87906 12.0687L9.88779 13.3332ZM13.2925 9.93547C13.2731 8.06072 11.7597 6.55724 9.88557 6.5508L9.88124 7.81529C11.0641 7.81935 12.0163 8.76537 12.0285 9.94854L13.2925 9.93547ZM9.88557 6.5508C8.00646 6.54433 6.46815 8.05217 6.45516 9.93766L7.71918 9.94636C7.72733 8.76322 8.69284 7.81123 9.88124 7.81529L9.88557 6.5508ZM6.45516 9.93766C6.44202 11.8465 8.00251 13.3462 9.88779 13.3332L9.87906 12.0687C8.67576 12.077 7.71106 11.1273 7.71918 9.94636L6.45516 9.93766Z" fill="white"/>
<path fill-rule="evenodd" clip-rule="evenodd" d="M9.88232 11.0553C10.4958 11.0553 10.9932 10.5663 10.9932 9.96318C10.9932 9.36004 10.4958 8.87109 9.88232 8.87109C9.26883 8.87109 8.77148 9.36004 8.77148 9.96318C8.77148 10.5663 9.26883 11.0553 9.88232 11.0553ZM9.88232 10.0973C9.96693 10.0973 10.0355 10.0287 10.0355 9.94402C10.0355 9.85938 9.96693 9.79075 9.88232 9.79075C9.7977 9.79075 9.7291 9.85938 9.7291 9.94402C9.7291 10.0287 9.7977 10.0973 9.88232 10.0973Z" fill="white"/>
<path d="M15.2836 9.9503C15.2864 10.2995 15.5716 10.5803 15.9206 10.5775C16.2697 10.5747 16.5504 10.2895 16.5476 9.94026L15.2836 9.9503ZM9.88964 16.6127C10.2387 16.6089 10.5185 16.3227 10.5146 15.9735C10.5108 15.6243 10.2247 15.3444 9.87562 15.3483L9.88964 16.6127ZM16.5476 9.94026C16.5185 6.26643 13.5582 3.31436 9.88562 3.29695L9.87964 4.56147C12.8603 4.57561 15.26 6.96855 15.2836 9.9503L16.5476 9.94026ZM9.88562 3.29695C6.19849 3.27947 3.16604 6.24528 3.16016 9.94428L4.42422 9.94627C4.42897 6.95763 6.88173 4.54725 9.87964 4.56147L9.88562 3.29695ZM3.16016 9.94428C3.15429 13.6457 6.18983 16.6537 9.88964 16.6127L9.87562 15.3483C6.8802 15.3815 4.41947 12.943 4.42422 9.94627L3.16016 9.94428Z" fill="white"/>
<path d="M18.5587 9.92553C18.5594 10.2747 18.8429 10.5572 19.192 10.5565C19.5411 10.5558 19.8234 10.2721 19.8227 9.92292L18.5587 9.92553ZM19.8227 9.92292C19.8114 4.42638 15.358 -0.0195312 9.8635 -0.0195312V1.24499C14.6609 1.24499 18.5488 5.12632 18.5587 9.92553L19.8227 9.92292ZM9.8635 -0.0195312C4.37016 -0.0195312 -0.0957031 4.42546 -0.0957031 9.92423H1.16835C1.16835 5.12724 5.06489 1.24499 9.8635 1.24499V-0.0195312ZM-0.0957031 9.92423C-0.0957031 15.4218 4.36928 19.8793 9.86481 19.868L9.8622 18.6035C5.06581 18.6133 1.16835 14.7224 1.16835 9.92423H-0.0957031Z" fill="white"/>
<path d="M9.84465 18.6055C9.49558 18.6055 9.21262 18.8885 9.21262 19.2377C9.21262 19.5869 9.49558 19.87 9.84465 19.87V18.6055ZM5.13306 24.7829C5.12701 24.4338 4.83915 24.1557 4.49012 24.1618C4.14113 24.1679 3.86315 24.4558 3.86924 24.805L5.13306 24.7829ZM9.84465 19.87C12.8384 19.87 15.1546 22.0134 15.1498 24.7929L16.4139 24.795C16.4201 21.2221 13.4393 18.6055 9.84465 18.6055V19.87ZM15.1498 24.7929C15.145 27.5891 12.6954 29.8482 9.8779 29.6997L9.8114 30.9624C13.3249 31.1477 16.4078 28.3411 16.4139 24.795L15.1498 24.7929ZM9.8779 29.6997C7.20902 29.559 5.17968 27.4561 5.13306 24.7829L3.86924 24.805C3.92739 28.1421 6.47966 30.7868 9.8114 30.9624L9.8779 29.6997Z" fill="white"/>
</g>
<defs>
<clipPath id="clip0_7134_7901">
<rect width="48.1489" height="31" fill="white"/>
</clipPath>
</defs>
</svg>
